<?xml version="1.0" encoding="UTF-8" standalone="no"?>
<!-- Creator: CorelDRAW X7 -->

<svg
   xml:space="preserve"
   width="0.80000001in"
   height="0.79999995in"
   version="1.1"
   style="clip-rule:evenodd;fill-rule:evenodd;image-rendering:optimizeQuality;shape-rendering:geometricPrecision;text-rendering:geometricPrecision"
   viewBox="0 0 177.81437 177.90341"
   id="svg660"
   sodipodi:docname="thymos_ico.svg"
   inkscape:version="1.2.2 (732a01da63, 2022-12-09)"
   inkscape:export-filename="tyhmos_ico.png"
   inkscape:export-xdpi="600"
   inkscape:export-ydpi="600"
   xmlns:inkscape="http://www.inkscape.org/namespaces/inkscape"
   xmlns:sodipodi="http://sodipodi.sourceforge.net/DTD/sodipodi-0.dtd"
   xmlns="http://www.w3.org/2000/svg"
   xmlns:svg="http://www.w3.org/2000/svg"><sodipodi:namedview
   id="namedview11"
   pagecolor="#505050"
   bordercolor="#eeeeee"
   borderopacity="1"
   inkscape:showpageshadow="0"
   inkscape:pageopacity="0"
   inkscape:pagecheckerboard="0"
   inkscape:deskcolor="#505050"
   inkscape:document-units="in"
   showgrid="false"
   inkscape:zoom="3.8531797"
   inkscape:cx="56.187361"
   inkscape:cy="70.980339"
   inkscape:window-width="1920"
   inkscape:window-height="1001"
   inkscape:window-x="-9"
   inkscape:window-y="-9"
   inkscape:window-maximized="1"
   inkscape:current-layer="Vrstva_x0020_1" />
 <defs
   id="defs650"><style
     type="text/css"
     id="style648">
   <![CDATA[
    .fil1 {fill:white}
    .fil0 {fill:white;fill-rule:nonzero}
   ]]>
  </style></defs>
 <g
   id="Vrstva_x0020_1"
   transform="translate(225.12939,129.3157)"
   inkscape:label="Vrstva 1">
  <metadata
   id="CorelCorpID_0Corel-Layer" />
  
  
  
 <rect
   style="clip-rule:evenodd;fill:#ffffff;fill-opacity:1;fill-rule:evenodd;stroke:#fefefe;stroke-width:47.8912;stroke-linecap:round;stroke-linejoin:round;stroke-dasharray:none;stroke-dashoffset:0;stroke-opacity:1;paint-order:normal;image-rendering:optimizeQuality;shape-rendering:geometricPrecision;text-rendering:geometricPrecision"
   id="rect907"
   width="130.01222"
   height="130.01219"
   x="-201.22832"
   y="-105.3701"
   inkscape:export-filename="install_ico.png"
   inkscape:export-xdpi="400"
   inkscape:export-ydpi="400"
   ry="9.1107063"
   rx="9.411293" /><g
   id="g336"
   transform="matrix(2.8394154,0,0,-2.8394154,-534.46356,4365.1719)"
   style="clip-rule:evenodd;fill:#000000;fill-opacity:1;fill-rule:evenodd;image-rendering:optimizeQuality;shape-rendering:geometricPrecision;text-rendering:geometricPrecision"><path
     d="m 123.6523,1534.5539 0.1338,10.1009 c -1.2214,0.2954 -2.2799,0.9406 -3.107,1.8153 -1.1812,1.249 -1.8746,2.9693 -1.8746,4.7963 v 10.6718 c 0,3.4858 1.5041,7.7437 4.5281,10.8338 2.4437,2.4973 5.864,4.246 10.2608,4.246 h 23.9429 l 4.1686,-29.4752 -6.4806,-6e-4 v -21.1978 l -1.3354,-0.1547 c -0.0535,-0.01 -18.8302,-2.4251 -18.8302,20.2583 h 3.0126 c 0,-15.8091 10.3856,-17.3052 14.1407,-17.3301 v 21.4248 h 6.0335 l -3.3182,23.4618 h -21.3339 c -3.4939,0 -6.1968,-1.3754 -8.1192,-3.3401 -2.4424,-2.4956 -3.657,-5.9246 -3.657,-8.7273 v -10.6718 c 0,-1.0557 0.3892,-2.0376 1.0502,-2.7366 0.6018,-0.6369 1.4466,-1.0406 2.437,-1.0406 h 1.5205 l -0.1712,-12.9708 -3.0014,0.036 z"
     style="fill:#000000;fill-opacity:1;fill-rule:nonzero;stroke:none"
     id="path338" /><path
     d="m 147.469,1553.0559 c 2.0158,0 3.6494,1.6336 3.6494,3.649 0,2.0154 -1.6336,3.6491 -3.6494,3.6491 -2.0154,0 -3.649,-1.6337 -3.649,-3.6491 0,-2.0154 1.6336,-3.649 3.649,-3.649"
     style="fill:#000000;fill-opacity:1;fill-rule:evenodd;stroke:none"
     id="path340" /></g></g>
</svg>
